{"accessors" : [{"bufferView" : 0, "byteOffset" : 0, "componentType" : 5123, "count" : 2880, "type" : "SCALAR", "max" : [1815], "min" : [0]}, {"bufferView" : 1, "byteOffset" : 0, "componentType" : 5126, "count" : 1816, "type" : "VEC3", "max" : [1.000000238418579, 1, 1], "min" : [-0.9999998211860657, -1.0000003576278687, -1], "name" : "POSITION"}, {"bufferView" : 1, "byteOffset" : 12, "componentType" : 5126, "count" : 1816, "type" : "VEC3", "max" : [1.0000044107437134, 1.0000044107437134, 1.0000044107437134], "min" : [0, 0, 0], "name" : "NORMAL"}, {"bufferView" : 1, "byteOffset" : 24, "componentType" : 5126, "count" : 1816, "type" : "VEC3", "max" : [0, 0, 0], "min" : [0, 0, 0], "name" : "COLOR_0"}, {"bufferView" : 0, "byteOffset" : 5760, "componentType" : 5123, "count" : 2880, "type" : "SCALAR", "max" : [1815], "min" : [0]}, {"bufferView" : 2, "byteOffset" : 0, "componentType" : 5126, "count" : 1816, "type" : "VEC3", "max" : [10.050003051757812, 10.050000190734863, 10.050000190734863], "min" : [-10.04999828338623, -10.050004005432129, -10.050000190734863], "name" : "POSITION"}, {"bufferView" : 2, "byteOffset" : 12, "componentType" : 5126, "count" : 1816, "type" : "VEC3", "max" : [1.0000044107437134, 1.0000044107437134, 1.0000044107437134], "min" : [0, 0, 0], "name" : "NORMAL"}, {"bufferView" : 2, "byteOffset" : 24, "componentType" : 5126, "count" : 1816, "type" : "VEC3", "max" : [0, 0, 0], "min" : [0, 0, 0], "name" : "COLOR_0"}, {"bufferView" : 0, "byteOffset" : 11520, "componentType" : 5123, "count" : 2880, "type" : "SCALAR", "max" : [1815], "min" : [0]}, {"bufferView" : 3, "byteOffset" : 0, "componentType" : 5126, "count" : 1816, "type" : "VEC3", "max" : [10.100253105163574, 10.100250244140625, 10.100250244140625], "min" : [-10.100248336791992, -10.10025405883789, -10.100250244140625], "name" : "POSITION"}, {"bufferView" : 3, "byteOffset" : 12, "componentType" : 5126, "count" : 1816, "type" : "VEC3", "max" : [1.0000044107437134, 1.0000044107437134, 1.0000044107437134], "min" : [0, 0, 0], "name" : "NORMAL"}, {"bufferView" : 3, "byteOffset" : 24, "componentType" : 5126, "count" : 1816, "type" : "VEC3", "max" : [0, 0, 0], "min" : [0, 0, 0], "name" : "COLOR_0"}], "asset" : {"generator" : "Aspose.3D 25.3.0", "version" : "2.0"}, "buffers" : [{"uri" : "data:application/octet-stream;base64,", "byteLength" : 213424}], "bufferViews" : [{"buffer" : 0, "byteOffset" : 0, "byteLength" : 17280, "target" : 34963}, {"buffer" : 0, "byteOffset" : 17284, "byteLength" : 65376, "byteStride" : 36, "target" : 34962}, {"buffer" : 0, "byteOffset" : 82664, "byteLength" : 65376, "byteStride" : 36, "target" : 34962}, {"buffer" : 0, "byteOffset" : 148044, "byteLength" : 65376, "byteStride" : 36, "target" : 34962}], "cameras" : [{"perspective" : {"aspectRatio" : 1.3333333333333333, "yfov" : 0.43833943764363487, "zfar" : 100, "znear" : 0.10000000149011612}, "type" : "perspective", "name" : "CACamera"}], "materials" : [{"name" : "MAearth", "pbrMetallicRoughness" : {"baseColorFactor" : [0.800000011920929, 0.800000011920929, 0.800000011920929, 0], "metallicFactor" : 0, "roughnessFactor" : 0.4000000059604645}, "emissiveFactor" : [0, 0, 0], "alphaMode" : "BLEND", "doubleSided" : false}, {"name" : "MAclouds", "pbrMetallicRoughness" : {"baseColorFactor" : [0.800000011920929, 0.800000011920929, 0.800000011920929, 0], "metallicFactor" : 0, "roughnessFactor" : 0.4000000059604645}, "emissiveFactor" : [0, 0, 0], "alphaMode" : "BLEND", "doubleSided" : false}, {"name" : "MAatmo", "pbrMetallicRoughness" : {"baseColorFactor" : [0.800000011920929, 0.800000011920929, 0.800000011920929, 0], "metallicFactor" : 0, "roughnessFactor" : 0.4000000059604645}, "emissiveFactor" : [0, 0, 0], "alphaMode" : "BLEND", "doubleSided" : false}], "meshes" : [{"primitives" : [{"attributes" : {"POSITION" : 1, "NORMAL" : 2, "COLOR_0" : 3}, "indices" : 0, "material" : 0, "mode" : 4}], "name" : "MESphere"}, {"primitives" : [{"attributes" : {"POSITION" : 5, "NORMAL" : 6, "COLOR_0" : 7}, "indices" : 4, "material" : 1, "mode" : 4}], "name" : "MESphere.001"}, {"primitives" : [{"attributes" : {"POSITION" : 9, "NORMAL" : 10, "COLOR_0" : 11}, "indices" : 8, "material" : 2, "mode" : 4}], "name" : "MESphere.002"}], "nodes" : [{"camera" : 0, "matrix" : [1, 0, 0, 0, 0, -0.027412305829536618, 0.9996244506445298, 0, 0, -0.9996244506445298, -0.027412305829536618, 0, -0.7413157224655151, -122.73839906293833, -1.5713972850208293, 1], "name" : "OBCamera"}, {"matrix" : [-31.606280471557472, 85.0994623712221, 41.9419244192448, 0, -91.33227800456147, -39.257767793996464, 10.827861256565656, 0, 25.679913958491298, -34.88422938146239, 90.1311940498329, 0, 0, 0, 0, 1], "mesh" : 0, "name" : "OBearth"}, {"matrix" : [-0.5275099827259325, 0.2094851684647768, 0.8233159600986876, 0, 0.10298503155560716, -0.946206260933226, 0.3067374160470302, 0, 0.8432836511286985, 0.2465962679086805, 0.4775594092299589, 0, 0, 0, 0, 1], "mesh" : 1, "name" : "OBclouds"}, {"mesh" : 2, "name" : "OBatmo"}, {"children" : [0, 1, 2, 3], "name" : "GRCollection"}], "scene" : 0, "scenes" : [{"nodes" : [4]}]}